<svg width="51" height="58" viewBox="0 0 51 58" fill="none" xmlns="http://www.w3.org/2000/svg">
<path d="M38.7673 37.992C36.6778 35.7873 33.1966 35.6939 30.9919 37.7835C28.7873 39.873 28.6939 43.3541 30.7834 45.5588L38.3503 53.5427C40.4398 55.7474 43.921 55.8408 46.1257 53.7512C48.3304 51.6617 48.4237 48.1805 46.3342 45.9759L38.7673 37.992Z" fill="#752F00"/>
<path d="M25.5 50C39.5833 50 51 38.8071 51 25C51 11.1929 39.5833 0 25.5 0C11.4167 0 0 11.1929 0 25C0 38.8071 11.4167 50 25.5 50Z" fill="#752F00"/>
<path d="M38.7427 39.9772C37.2068 38.3566 34.6479 38.288 33.0273 39.8239C31.4067 41.3599 31.3381 43.9188 32.8741 45.5393L39.3433 52.3651C40.8792 53.9856 43.4381 54.0543 45.0587 52.5183C46.6792 50.9824 46.7479 48.4235 45.2119 46.8029L38.7427 39.9772Z" fill="white"/>
<path d="M25.5 46C37.3741 46 47 36.598 47 25C47 13.402 37.3741 4 25.5 4C13.6259 4 4 13.402 4 25C4 36.598 13.6259 46 25.5 46Z" fill="white"/>
<path d="M25.5 6C14.7324 6 6 14.5047 6 25C6 35.4953 14.7292 44 25.5 44C36.2708 44 45 35.4953 45 25C45 14.5047 36.2708 6 25.5 6ZM23.7699 9.74392C24.3613 9.90415 24.7954 10.6283 25.2924 11.1028C25.2924 11.1028 25.2955 11.1028 25.2987 11.1028C25.2987 11.1028 25.3018 11.1028 25.305 11.1028C25.802 10.6314 26.2329 9.90723 26.8275 9.74392C27.4849 9.5652 28.3154 11.1644 27.8907 12.0396C27.249 13.3553 26.4122 14.5941 25.5094 16.0577C25.4528 16.1872 25.393 16.3166 25.3364 16.4552C25.3238 16.4337 25.3144 16.4183 25.3018 16.3967C25.2892 16.4152 25.2798 16.4337 25.2672 16.4552C25.2075 16.3197 25.1508 16.1902 25.0942 16.0577C24.1914 14.5941 23.3547 13.3553 22.7129 12.0396C22.2788 11.1614 23.1124 9.5652 23.7699 9.74392ZM22.8513 14.3476C23.7699 15.7373 24.6507 17.0746 25.4748 18.3195C26.2581 17.0006 27.1137 15.5555 28.1015 13.8884C29.6397 17.4567 25.9152 18.9358 25.4717 21.5581C22.9614 19.1761 21.7629 16.0177 22.8513 14.3476ZM21.2691 17.697C22.7161 20.0851 24.1411 22.4332 25.3647 24.4484C26.5255 22.2021 27.8593 19.626 29.1993 17.0345C30.4198 18.8064 30.2342 22.2113 28.7935 23.6411C27.7177 24.7073 26.5538 25.6841 25.4969 26.6393C24.2669 25.5916 22.9803 24.5347 21.7378 23.4285C20.1524 22.0079 19.9448 19.5983 21.2691 17.697ZM22.4361 26.0292C23.8359 26.9998 24.5469 28.3896 24.808 30.0227C23.9146 28.14 22.5242 26.8211 20.3128 26.3435C21.5774 27.6531 22.8419 28.9627 24.1065 30.2723C20.2404 28.5652 17.5289 26.023 17.5383 21.555C18.4222 23.8722 20.6053 24.7596 22.4361 26.0292ZM14.8456 24.8182C15.3206 25.5115 15.6761 26.0107 16.0127 26.5253C17.2615 28.445 19.0891 29.4557 21.332 29.9703C23.6692 30.5065 24.9464 31.9702 25.1634 34.3706C24.4179 32.5341 23.0212 32.0379 21.549 31.6189C20.1649 31.2245 18.7997 30.7653 17.3307 30.3031C18.1549 31.8253 19.5452 32.4786 21.074 32.9901C21.9863 33.2952 22.9898 33.5448 23.7258 34.1056C24.4619 34.6633 24.9149 35.5754 25.2987 36.5091C24.0404 34.6479 22.0649 34.2412 20.0989 33.742C15.7201 32.6357 13.4521 28.8703 14.8456 24.8182ZM24.8583 41.1343C23.5717 40.3362 22.3638 39.384 20.9985 38.7462C19.3848 37.9943 17.5855 37.6215 15.9592 36.8881C12.7978 35.4583 10.9387 31.7421 11.8321 28.4666C11.8635 28.3495 12.0019 27.878 12.2221 27.6284C12.996 31.6805 15.8868 33.2921 19.5358 34.121C21.4673 34.5585 23.2257 35.3967 24.4745 36.9775C24.8426 37.4427 25.0722 38.0128 25.0879 38.7493C24.7922 38.4411 24.5469 38.056 24.1914 37.8433C22.9268 37.0822 21.785 35.9051 20.3285 35.6863C18.5072 35.4152 16.2392 34.5308 14.6317 33.3691C15.2546 34.4106 15.2986 34.5986 16.6166 35.8373C17.6893 36.845 18.9161 36.7402 20.3568 37.1593C22.4676 37.7725 24.4431 38.5089 25.3018 40.746C25.3647 40.9063 25.5881 41.011 25.6007 41.427C25.3522 41.3315 25.0816 41.2699 24.8583 41.1343ZM27.7271 25.7334C29.4101 24.1372 31.5208 22.88 32.0556 20.3501C32.798 24.963 30.4135 28.0136 26.6985 30.3801C27.7901 28.8302 28.8816 27.2802 29.9731 25.7303C27.768 26.5684 26.5475 28.1492 25.9341 30.2322C25.9341 28.5005 26.4406 26.9536 27.7271 25.7334ZM29.7246 30.6297C27.5919 31.2214 27.7586 31.4864 26.5255 33.175C26.494 33.1596 26.4626 33.1473 26.4311 33.1349C26.8338 32.3523 27.227 31.5603 27.8026 30.9256C28.6551 29.9826 29.8725 29.3602 30.8539 28.5128C32.389 27.1909 33.858 25.8012 35.2862 24.5008C36.0726 26.0323 35.5599 29.049 33.6787 30.676C32.2821 31.8808 30.5645 32.7374 28.9728 33.7204C28.0826 34.2689 27.1766 34.7804 26.299 35.2888C26.3462 34.9222 26.4437 34.5678 26.7016 34.2566C27.6296 33.3414 28.1612 32.3153 29.1553 31.9116C30.2531 31.4679 31.5208 30.2939 32.345 29.4711C32.2349 29.3756 30.92 30.2353 29.7246 30.6297ZM39.2088 31.5942C38.652 33.9053 37.0006 35.372 34.937 36.3951C33.685 37.0144 32.3261 37.4366 31.0018 37.9019C29.6051 38.3918 28.1895 38.8263 26.4122 39.4025C29.0546 36.6262 33.2981 37.1069 35.585 34.1764C32.4268 35.4552 29.4006 36.6816 26.406 37.8926C26.6387 36.9559 27.4723 36.1732 28.5702 35.6401C29.9669 34.9622 31.4076 34.3767 32.8105 33.7112C35.6574 32.3584 37.6423 30.3586 37.8751 26.6886C39.4322 28.3372 39.6146 29.9149 39.2088 31.5942Z" fill="#752F00"/>
</svg>
